<?xml version="1.0" standalone="no"?><!DOCTYPE svg PUBLIC "-//W3C//DTD SVG 1.1//EN" "http://www.w3.org/Graphics/SVG/1.1/DTD/svg11.dtd"><svg t="1620725678299" class="icon" viewBox="0 0 1024 1024" version="1.1" xmlns="http://www.w3.org/2000/svg" p-id="1883" xmlns:xlink="http://www.w3.org/1999/xlink" width="200" height="200"><defs><style type="text/css"></style></defs><path d="M512 0a512 512 0 1 1 0 1024A512 512 0 0 1 512 0z" fill="#5284FF" p-id="1884"></path><path d="M571.733 432.356a39.424 39.424 0 0 1 14.393 30.833c0 7.055-2.162 21.675-27.363 104.562-25.771 83.627-36.637 126.35-39.424 148.196a446.009 446.009 0 0 0 38.115-32.939c17.18-16.156 75.094 10.07 45.227 44.828-29.867 34.816-67.698 58.255-86.357 68.836-20.879 11.947-38.116 16.782-52.452 16.782a48.981 48.981 0 0 1-38.116-15.474 51.883 51.883 0 0 1-14.392-38.684c0-34.36 18.773-110.876 57.457-234.44-6.485 5.52-19.91 19.912-30.15 27.364-10.298 7.51-35.272 9.444-48.186-5.688-8.533-10.07-8.533-22.187 0-36.182 28.73-30.834 55.296-53.362 79.872-66.73 43.919-24.633 80.555-27.364 101.433-11.208zM563.2 250.31a62.578 62.578 0 1 1 0 125.156 62.578 62.578 0 0 1 0-125.156z" fill="#FFFFFF" p-id="1885"></path></svg>