<?xml version="1.0" encoding="iso-8859-1"?>
<!-- Generator: Adobe Illustrator 19.0.0, SVG Export Plug-In . SVG Version: 6.00 Build 0)  -->
<svg version="1.1" id="Capa_1" xmlns="http://www.w3.org/2000/svg" xmlns:xlink="http://www.w3.org/1999/xlink" x="0px" y="0px"
	 viewBox="0 0 407.51 407.51" style="enable-background:new 0 0 407.51 407.51;" xml:space="preserve">
<g>
	<g>
		<polygon style="fill:#46C43D;" points="254.433,247.641 294.139,300.931 237.714,300.931 224.653,282.122 224.653,282.122 		"/>
		<polygon style="fill:#87E680;" points="224.653,282.122 237.714,300.931 209.502,300.931 102.922,300.931 171.886,207.935 		"/>
		<circle style="fill:#D4E1F4;" cx="228.31" cy="180.245" r="21.42"/>
		<path style="fill:#00ACEA;" d="M352.653,118.073l-2.612,2.09h-88.816c-8.363,0.294-15.38-6.247-15.673-14.61
			c-0.012-0.354-0.012-0.709,0-1.064V15.673l2.09-2.09L352.653,118.073z"/>
		<path style="fill:#00EFD1;" d="M355.265,120.686v234.58c0,23.083-18.713,41.796-41.796,41.796H94.041
			c-23.083,0-41.796-18.713-41.796-41.796V52.245c0-23.083,18.713-41.796,41.796-41.796h150.465l3.135,3.135l-2.09,2.09v88.816
			c-0.294,8.363,6.247,15.38,14.61,15.673c0.354,0.012,0.709,0.012,1.064,0h88.816l2.612-2.09L355.265,120.686z M294.139,300.931
			l-39.706-53.29l-29.78,34.482l0,0l-52.767-74.188l-68.963,92.996H294.139z M249.731,180.245c0-11.83-9.59-21.42-21.42-21.42
			c-11.83,0-21.42,9.59-21.42,21.42c0,11.83,9.59,21.42,21.42,21.42h0C240.14,201.665,249.731,192.075,249.731,180.245z"/>
	</g>
	<g>
		<path style="fill:#083863;" d="M302.498,294.661l-39.706-53.29c-1.809-2.549-4.712-4.098-7.837-4.18
			c-3.215-0.21-6.331,1.154-8.359,3.657l-21.42,24.555l-44.931-63.739c-1.848-2.777-5.029-4.368-8.359-4.18
			c-3.27,0.077-6.335,1.61-8.359,4.18l-68.963,92.996c-2.378,3.564-2.773,8.095-1.045,12.016c1.679,3.796,5.273,6.392,9.404,6.792
			h191.216c4.131-0.4,7.726-2.996,9.404-6.792C305.27,302.757,304.876,298.225,302.498,294.661z M123.82,292.571l48.065-64.784
			l45.453,64.784H123.82z M242.939,292.571l-5.224-8.359l16.196-18.286l19.331,26.645H242.939z"/>
		<path style="fill:#083863;" d="M228.31,212.114c-17.601,0-31.869-14.268-31.869-31.869s14.268-31.869,31.869-31.869
			c17.601,0,31.869,14.268,31.869,31.869v0C260.18,197.846,245.911,212.114,228.31,212.114z M228.31,169.273
			c-6.059,0-10.971,4.912-10.971,10.971c0,6.059,4.912,10.971,10.971,10.971c6.059,0,10.971-4.912,10.971-10.971c0,0,0,0,0,0
			C239.282,174.186,234.37,169.273,228.31,169.273L228.31,169.273z"/>
		<path style="fill:#083863;" d="M362.58,113.371L254.955,6.269l-3.135-3.135c-1.929-1.969-4.558-3.095-7.314-3.135H94.041
			C65.187,0,41.796,23.391,41.796,52.245l0,0v303.02c0,28.854,23.391,52.245,52.245,52.245h219.429
			c28.854,0,52.245-23.391,52.245-52.245v-234.58C365.675,117.93,364.548,115.301,362.58,113.371z M256,36.571l73.665,73.143
			h-68.441c-2.579,0.307-4.918-1.535-5.224-4.114c-0.044-0.369-0.044-0.742,0-1.111V36.571z M313.469,386.612H94.041
			c-17.312,0-31.347-14.035-31.347-31.347V52.245c0-17.312,14.035-31.347,31.347-31.347h141.061v83.592
			c0,14.427,11.695,26.122,26.122,26.122h83.592v224.653C344.816,372.578,330.782,386.612,313.469,386.612z"/>
	</g>
</g>
<g>
</g>
<g>
</g>
<g>
</g>
<g>
</g>
<g>
</g>
<g>
</g>
<g>
</g>
<g>
</g>
<g>
</g>
<g>
</g>
<g>
</g>
<g>
</g>
<g>
</g>
<g>
</g>
<g>
</g>
</svg>
