<?xml version="1.0" encoding="iso-8859-1"?>
<!-- Generator: Adobe Illustrator 19.0.0, SVG Export Plug-In . SVG Version: 6.00 Build 0)  -->
<svg version="1.1" id="Capa_1" xmlns="http://www.w3.org/2000/svg" xmlns:xlink="http://www.w3.org/1999/xlink" x="0px" y="0px"
	 viewBox="0 0 512 512" style="enable-background:new 0 0 512 512;" xml:space="preserve">
<path style="fill:#90CAF9;" d="M10.667,0h490.667C507.224,0,512,4.776,512,10.667v490.667c0,5.891-4.776,10.667-10.667,10.667
	H10.667C4.776,512,0,507.224,0,501.333V10.667C0,4.776,4.776,0,10.667,0z"/>
<path style="fill:#283593;" d="M53.333,42.667h405.333c5.891,0,10.667,4.776,10.667,10.667v405.333
	c0,5.891-4.776,10.667-10.667,10.667H53.333c-5.891,0-10.667-4.776-10.667-10.667V53.333C42.667,47.442,47.442,42.667,53.333,42.667
	z"/>
<g>
	<path style="fill:#90CAF9;" d="M160,362.667c-5.891,0-10.667-4.776-10.667-10.667V160c-0.048-5.375,3.91-9.947,9.237-10.667
		c31.211-4.267,73.707-4.629,99.136,17.621c13.193,11.715,20.402,28.752,19.627,46.379c-0.225,21.633-11.662,41.598-30.208,52.736
		c-22.794,14.182-50.009,19.482-76.459,14.891V352C170.667,357.891,165.891,362.667,160,362.667z M170.667,259.115
		c22.181,4.894,45.396,1.002,64.768-10.859c12.6-7.132,20.44-20.444,20.565-34.923c0.693-11.426-3.844-22.548-12.331-30.229
		c-21.663-13.796-47.824-18.674-73.003-13.611V259.115z"/>
	<path style="fill:#90CAF9;" d="M342.229,363.157c-14.671,0.108-28.922-4.901-40.299-14.165c-4.236-4.124-4.326-10.9-0.203-15.136
		c4.124-4.236,10.9-4.326,15.136-0.203c10.283,7.614,23.535,9.981,35.819,6.4c2.496-1.067,10.112-4.267,10.112-19.989
		c0-14.101-7.595-18.091-26.261-24.427c-16.064-5.504-37.867-12.843-37.867-39.637c-1.073-16.614,8.44-32.102,23.744-38.656
		c19.72-7.617,42.019-3.951,58.261,9.579c4.283,4.047,4.474,10.8,0.427,15.083c-4.047,4.283-10.8,4.474-15.083,0.427l0,0
		c-10.045-7.639-23.263-9.701-35.157-5.483C323.459,240.238,319.059,247.957,320,256c0,10.517,6.4,13.675,23.232,19.392
		C360.533,281.216,384,289.195,384,320c1.639,16.809-7.67,32.779-23.104,39.637C354.972,362.047,348.624,363.244,342.229,363.157z"
		/>
</g>
<g>
</g>
<g>
</g>
<g>
</g>
<g>
</g>
<g>
</g>
<g>
</g>
<g>
</g>
<g>
</g>
<g>
</g>
<g>
</g>
<g>
</g>
<g>
</g>
<g>
</g>
<g>
</g>
<g>
</g>
</svg>
