<?xml version="1.0" standalone="no"?><!DOCTYPE svg PUBLIC "-//W3C//DTD SVG 1.1//EN" "http://www.w3.org/Graphics/SVG/1.1/DTD/svg11.dtd"><svg fill="#009472" class="icon" viewBox="0 0 1024 1024" version="1.1" xmlns="http://www.w3.org/2000/svg" p-id="7611" xmlns:xlink="http://www.w3.org/1999/xlink" width="200" height="200"><path d="M984.615 844.332v43.322c0 51.2-43.323 94.523-94.523 94.523H133.908c-51.2 0-94.523-43.323-94.523-94.523v-43.322c0-114.215 133.907-185.107 259.938-240.246l11.815-5.908c9.847-3.938 19.693-3.938 29.539 1.97 51.2 33.477 108.308 51.2 169.354 51.2s120.123-19.693 169.354-51.2c9.846-5.908 19.692-5.908 29.538-1.97l11.815 5.908c129.97 55.139 263.877 124.062 263.877 240.246zM512 36.946c129.97 0 234.338 116.184 234.338 259.938S641.97 556.824 512 556.824s-234.338-116.185-234.338-259.94S382.03 36.948 512 36.948z"></path></svg>